<?xml version="1.0" standalone="no"?>
<!DOCTYPE svg PUBLIC "-//W3C//DTD SVG 1.1//EN"
  "http://www.w3.org/Graphics/SVG/1.1/DTD/svg11.dtd">
<svg width="8mm" height="8mm" viewBox="3 13 8 8" xmlns="http://www.w3.org/2000/svg" version="1.1">
	<title>svgOutput</title>
	<desc>made with tinkercad</desc>
<path d="M 6.072999954223633 14.147000312805176 L 6.814008712768555 14.02949333190918 L 7 14 L 7.927000045776367 14.147000312805176 L 8.192000389099121 14.282035827636719 L 8.762999534606934 14.572999954223633 L 8.86925220489502 14.679252624511719 L 9.427000045776367 15.237000465393066 L 9.647993087768555 15.670686721801758 L 9.64799690246582 15.670693397521973 L 9.852999687194824 16.072999954223633 L 9.90231704711914 16.384000778198242 L 10 17 L 9.852999687194824 17.927000045776367 L 9.427000045776367 18.76300048828125 L 8.762999534606934 19.427000045776367 L 8.192000389099121 19.71796417236328 L 7.927000045776367 19.85300064086914 L 7 20 L 6.072999954223633 19.85300064086914 L 5.236999988555908 19.427000045776367 L 4.572999954223633 18.76300048828125 L 4.146999835968018 17.927000045776367 L 4.0960001945495605 17.605388641357422 L 4 17 L 4.0960001945495605 16.394611358642578 L 4.097682952880859 16.384000778198242 L 4.146999835968018 16.072999954223633 L 4.351535320281982 15.671611785888672 L 4.3519792556762695 15.670740127563477 L 4.35200309753418 15.670693397521973 L 4.352363586425781 15.6699857711792 L 4.352445125579834 15.66982650756836 L 4.353177070617676 15.668389320373535 L 4.572999954223633 15.237000465393066 L 4.914058685302734 14.895941734313965 L 5.236999988555908 14.572999954223633 L 5.785180568695068 14.29366397857666 L 6.072999954223633 14.147000312805176 z" fill="none" stroke="rgb(255,0,0)" stroke-width="0.001mm" />
</svg>